<svg width="24" height="24" viewBox="0 0 24 24" fill="none" xmlns="http://www.w3.org/2000/svg">
<path d="M10.1961 16.5L5.69607 12L6.95608 10.74L10.1961 13.98L17.0361 7.13999L18.296 8.4L10.1961 16.5ZM11.9961 2.99998C10.216 2.99998 8.47598 3.52783 6.99594 4.51676C5.51589 5.50569 4.36237 6.91129 3.68118 8.55582C2.99999 10.2004 2.82176 12.01 3.16903 13.7558C3.5163 15.5017 4.37343 17.1053 5.63211 18.364C6.89078 19.6227 8.49443 20.4798 10.2403 20.8271C11.9861 21.1743 13.7957 20.9961 15.4402 20.3149C17.0847 19.6337 18.4903 18.4802 19.4793 17.0002C20.4682 15.5201 20.9961 13.78 20.9961 12C20.9961 9.61303 20.0478 7.32385 18.36 5.63602C16.6722 3.9482 14.383 2.99998 11.9961 2.99998Z" fill="#EFEFEF"/>
</svg>
